<svg width="70" height="80" viewBox="0 0 70 80" fill="none" xmlns="http://www.w3.org/2000/svg">
<path fill-rule="evenodd" clip-rule="evenodd" d="M63.1111 1.3335C65.3202 1.3335 67.1111 3.12436 67.1111 5.3335V64.0002C67.1111 72.1003 60.5446 78.6668 52.4444 78.6668H16C7.89981 78.6668 1.33331 72.1004 1.33331 64.0002V21.5113C1.33331 19.3021 3.12417 17.5113 5.33331 17.5113C7.54245 17.5113 9.33331 19.3021 9.33331 21.5113V64.0002C9.33331 67.6821 12.3181 70.6668 16 70.6668H52.4444C56.1263 70.6668 59.1111 67.6821 59.1111 64.0002V5.3335C59.1111 3.12436 60.9019 1.3335 63.1111 1.3335Z" fill="#1662F3"/>
<path fill-rule="evenodd" clip-rule="evenodd" d="M38.3111 33.0669C38.3111 30.8578 40.102 29.0669 42.3111 29.0669H51.5555C53.7647 29.0669 55.5555 30.8578 55.5555 33.0669C55.5555 35.276 53.7647 37.0669 51.5555 37.0669H42.3111C40.102 37.0669 38.3111 35.276 38.3111 33.0669Z" fill="#1662F3"/>
<path fill-rule="evenodd" clip-rule="evenodd" d="M12.8889 46.9331C12.8889 44.724 14.6798 42.9331 16.8889 42.9331H51.5556C53.7647 42.9331 55.5556 44.724 55.5556 46.9331C55.5556 49.1422 53.7647 50.9331 51.5556 50.9331H16.8889C14.6798 50.9331 12.8889 49.1422 12.8889 46.9331Z" fill="#1662F3"/>
<path fill-rule="evenodd" clip-rule="evenodd" d="M12.8889 60.7998C12.8889 58.5907 14.6798 56.7998 16.8889 56.7998H51.5556C53.7647 56.7998 55.5556 58.5907 55.5556 60.7998C55.5556 63.0089 53.7647 64.7998 51.5556 64.7998H16.8889C14.6798 64.7998 12.8889 63.0089 12.8889 60.7998Z" fill="#1662F3"/>
<path fill-rule="evenodd" clip-rule="evenodd" d="M56.6951 2.50507C58.2572 4.06717 58.2572 6.59983 56.6951 8.16192L28.9618 35.8953C28.1572 36.6998 27.0482 37.1236 25.9121 37.0607C24.7761 36.9978 23.7206 36.4541 23.0098 35.5656L13.7654 24.0101C12.3854 22.285 12.6651 19.7678 14.3901 18.3878C16.1151 17.0078 18.6323 17.2874 20.0124 19.0125L26.465 27.0783L51.0382 2.50507C52.6003 0.942972 55.133 0.942972 56.6951 2.50507Z" fill="#1662F3"/>
</svg>
