<svg width="20" height="20" viewBox="0 0 20 20" fill="none" xmlns="http://www.w3.org/2000/svg">
<g clip-path="url(#clip0_64_444)">
<path d="M19.7066 15.5627C17.9009 14.956 16.0968 14.3384 14.2884 13.742C13.9514 13.631 13.6322 13.951 13.7447 14.2878C14.3487 16.0967 14.9496 17.9028 15.5628 19.708C15.6861 20.0711 16.1867 20.104 16.3569 19.7602C17.7211 16.9998 17.0078 17.7234 19.7615 16.3569C20.105 16.1861 20.0711 15.6845 19.7072 15.5621L19.7066 15.5627Z" fill="white"/>
<path d="M9.69923 9.05676C9.49141 8.87194 9.18508 8.71514 8.78076 8.5869V11.1431C9.17324 11.0655 9.47634 10.9077 9.69061 10.6706C9.90434 10.4335 10.0115 10.1571 10.0115 9.84185C10.0115 9.50346 9.90757 9.24159 9.69976 9.05676H9.69923Z" fill="white"/>
<path d="M7.00256 5.72729C7.00256 6.03443 7.08816 6.2672 7.25937 6.42454C7.43057 6.58188 7.6906 6.72521 8.04055 6.85346V4.61836C7.71429 4.71589 7.4591 4.84414 7.27659 5.00363C7.09355 5.16313 7.00256 5.40453 7.00256 5.72729Z" fill="white"/>
<path d="M16.781 8.40048C16.6454 0.134191 6.23592 -3.11445 1.46379 3.64741C-2.66392 9.77075 2.51469 17.8474 9.78326 16.6452C10.853 16.4723 11.8888 16.0692 12.8111 15.504C12.8983 15.3213 12.6985 15.0901 12.6727 14.8918C12.4525 14.276 12.27 13.6477 12.0423 13.0345V13.0318C12.0051 12.8777 12.039 12.7155 12.1489 12.6013C12.2382 12.508 12.3265 12.4137 12.4159 12.3211C12.4902 12.2445 12.5656 12.168 12.642 12.0937C12.7174 12.0269 12.8197 11.9767 13.0641 12.0506C13.7909 12.2763 14.5037 12.5425 15.2289 12.7715C15.3183 12.7969 15.4421 12.9138 15.5105 12.7925C16.3089 11.4794 16.7918 9.94641 16.7589 8.40156L16.7799 8.40048H16.781ZM11.14 10.8948C10.9321 11.2822 10.6258 11.5979 10.2215 11.8431C9.81717 12.0883 9.33695 12.2343 8.78135 12.2806V13.7339C8.78135 13.9634 8.75873 14.1305 8.71405 14.2355C8.66936 14.3406 8.57138 14.3929 8.41956 14.3929C8.27958 14.3929 8.1816 14.3498 8.12507 14.2646C8.06854 14.179 8.04054 14.0464 8.04054 13.8681V12.2925C7.58562 12.2419 7.1883 12.1352 6.84805 11.9714C6.5078 11.8081 6.22408 11.6049 5.99688 11.3614C5.76969 11.1184 5.60118 10.8651 5.49243 10.6027C5.38368 10.3403 5.3293 10.0822 5.3293 9.82948C5.3293 9.6425 5.40198 9.47439 5.54788 9.32459C5.69378 9.17479 5.87521 9.09989 6.09325 9.09989C6.26822 9.09989 6.41574 9.14085 6.53633 9.22221C6.65693 9.30411 6.74037 9.41889 6.78721 9.56653C6.8922 9.88552 6.98318 10.1296 7.06124 10.2988C7.13877 10.468 7.25667 10.6226 7.41388 10.7627C7.57108 10.9028 7.77997 11.0101 8.04054 11.0839V8.37031C7.5194 8.22644 7.08439 8.06587 6.73445 7.88859C6.38451 7.71185 6.10079 7.45968 5.88329 7.1326C5.66524 6.80607 5.55703 6.38578 5.55703 5.87226C5.55703 5.20303 5.76969 4.65449 6.19554 4.22666C6.62139 3.79882 7.23622 3.54988 8.04108 3.47983V2.86124C8.04108 2.53471 8.16329 2.3709 8.40825 2.3709C8.65321 2.3709 8.78135 2.5304 8.78135 2.84939V3.47983C9.19697 3.52294 9.55391 3.60807 9.85109 3.73685C10.1483 3.8651 10.4078 4.05962 10.6296 4.32041C10.8045 4.51871 10.9397 4.72293 11.035 4.93307C11.1303 5.14322 11.1776 5.33558 11.1776 5.5107C11.1776 5.70522 11.1066 5.87334 10.965 6.01559C10.8229 6.15785 10.6511 6.22843 10.4492 6.22843C10.0681 6.22843 9.82148 6.02206 9.70896 5.60985C9.58083 5.12382 9.2718 4.80052 8.78188 4.64102V7.06848C9.26373 7.20103 9.64759 7.32119 9.93346 7.43004C10.2193 7.53888 10.4745 7.69676 10.7001 7.9026C10.9413 8.11652 11.1265 8.37247 11.2568 8.6699C11.3871 8.96734 11.4522 9.29334 11.4522 9.64735C11.4522 10.0908 11.3483 10.5063 11.1405 10.8931L11.14 10.8948Z" fill="white"/>
</g>
<defs>
<clipPath id="clip0_64_444">
<rect width="20" height="20" fill="white"/>
</clipPath>
</defs>
</svg>
