<svg width="159" height="30" viewBox="0 0 159 30" fill="none" xmlns="http://www.w3.org/2000/svg">
<g clip-path="url(#clip0_104_765)">
<path d="M100.8 12.0984L96.84 8.13843L95.3355 9.64293L99.2955 13.6029C100.066 14.3732 100.066 15.6264 99.2955 16.3967L95.3663 20.3259L96.8708 21.8304L100.8 17.9012C102.4 16.3014 102.4 13.6982 100.8 12.0984Z" fill="#C8DC00"/>
<path d="M94.5985 21.0941L93.0786 22.614L94.5831 24.1186L96.103 22.5986L94.5985 21.0941Z" fill="#1662F3"/>
<path d="M87.0079 3.60971L85.488 5.12964L86.9925 6.63419L88.5124 5.11426L87.0079 3.60971Z" fill="#1662F3"/>
<path d="M87.0073 6.64878L85.4874 8.1687L86.9919 9.67325L88.5118 8.15332L87.0073 6.64878Z" fill="#1662F3"/>
<path d="M88.3972 27.2955C88.0245 27.669 87.528 27.8745 87 27.8745C86.472 27.8745 85.9762 27.669 85.6027 27.2955L79.401 21.0938L77.8965 22.5982L84.0982 28.8C84.8985 29.6003 85.9492 30 87 30C88.0507 30 89.1015 29.6003 89.9017 28.8L93.816 24.8857L92.3115 23.3813L88.3972 27.2955Z" fill="#1662F3"/>
<path d="M74.7045 16.3974C73.9342 15.6272 73.9342 14.3739 74.7045 13.6037L78.6345 9.67369L77.13 8.16919L73.2 12.0984C71.6002 13.6982 71.6002 16.3014 73.2 17.9012L77.13 21.8304L78.6345 20.3259L74.7045 16.3967V16.3974Z" fill="#C8DC00"/>
<path d="M85.6027 2.70456C86.373 1.93431 87.627 1.93431 88.3965 2.70456L93.0937 7.40181L89.2867 11.2088L86.9992 13.4963L83.9595 10.4566L81.2422 13.1738C80.235 14.1811 80.235 15.8198 81.2422 16.8278L85.1715 20.7571C85.6597 21.2453 86.3085 21.5138 86.9985 21.5138C87.6885 21.5138 88.3372 21.2453 88.8255 20.7571L92.7547 16.8278C93.762 15.8206 93.762 14.1811 92.7547 13.1738L91.542 11.9611L96.1012 7.40181L89.9017 1.20006C88.302 -0.399693 85.6987 -0.399693 84.099 1.20006L77.8972 7.40181L79.4017 8.90631L85.6027 2.70456ZM83.9602 16.5353L82.7475 15.3226C82.6312 15.2063 82.614 15.0706 82.614 15.0001C82.614 14.9296 82.6312 14.7938 82.7475 14.6776L83.9602 13.4648L85.4955 15.0001L83.9602 16.5353V16.5353ZM87.3217 19.2526C87.2055 19.3688 87.0697 19.3861 86.9992 19.3861C86.9287 19.3861 86.793 19.3688 86.6767 19.2526L85.464 18.0398L86.9992 16.5046L88.5345 18.0398L87.3217 19.2526V19.2526ZM91.251 15.3233L90.0382 16.5361L88.503 15.0008L90.0382 13.4656L91.251 14.6783C91.3672 14.7946 91.3845 14.9303 91.3845 15.0008C91.3845 15.0713 91.3672 15.2071 91.251 15.3233V15.3233Z" fill="#1662F3"/>
</g>
<path d="M3.02797 16.73C3.1013 16.7367 3.18464 16.7433 3.27797 16.75C3.37797 16.75 3.49464 16.75 3.62797 16.75C4.40797 16.75 4.98464 16.5533 5.35797 16.16C5.73797 15.7667 5.92797 15.2233 5.92797 14.53C5.92797 13.8033 5.74797 13.2533 5.38797 12.88C5.02797 12.5067 4.45797 12.32 3.67797 12.32C3.5713 12.32 3.4613 12.3233 3.34797 12.33C3.23464 12.33 3.12797 12.3367 3.02797 12.35V16.73ZM7.53797 14.53C7.53797 15.13 7.44464 15.6533 7.25797 16.1C7.0713 16.5467 6.80464 16.9167 6.45797 17.21C6.11797 17.5033 5.7013 17.7233 5.20797 17.87C4.71464 18.0167 4.1613 18.09 3.54797 18.09C3.26797 18.09 2.9413 18.0767 2.56797 18.05C2.19464 18.03 1.82797 17.9833 1.46797 17.91V11.16C1.82797 11.0933 2.2013 11.05 2.58797 11.03C2.9813 11.0033 3.31797 10.99 3.59797 10.99C4.1913 10.99 4.72797 11.0567 5.20797 11.19C5.69464 11.3233 6.1113 11.5333 6.45797 11.82C6.80464 12.1067 7.0713 12.4733 7.25797 12.92C7.44464 13.3667 7.53797 13.9033 7.53797 14.53ZM8.49102 15.41C8.49102 14.9433 8.56102 14.5367 8.70102 14.19C8.84768 13.8367 9.03768 13.5433 9.27102 13.31C9.50435 13.0767 9.77102 12.9 10.071 12.78C10.3777 12.66 10.691 12.6 11.011 12.6C11.7577 12.6 12.3477 12.83 12.781 13.29C13.2143 13.7433 13.431 14.4133 13.431 15.3C13.431 15.3867 13.4277 15.4833 13.421 15.59C13.4143 15.69 13.4077 15.78 13.401 15.86H10.021C10.0543 16.1667 10.1977 16.41 10.451 16.59C10.7043 16.77 11.0443 16.86 11.471 16.86C11.7443 16.86 12.011 16.8367 12.271 16.79C12.5377 16.7367 12.7543 16.6733 12.921 16.6L13.121 17.81C13.041 17.85 12.9343 17.89 12.801 17.93C12.6677 17.97 12.5177 18.0033 12.351 18.03C12.191 18.0633 12.0177 18.09 11.831 18.11C11.6443 18.13 11.4577 18.14 11.271 18.14C10.7977 18.14 10.3843 18.07 10.031 17.93C9.68435 17.79 9.39435 17.6 9.16102 17.36C8.93435 17.1133 8.76435 16.8233 8.65102 16.49C8.54435 16.1567 8.49102 15.7967 8.49102 15.41ZM11.991 14.84C11.9843 14.7133 11.961 14.59 11.921 14.47C11.8877 14.35 11.831 14.2433 11.751 14.15C11.6777 14.0567 11.581 13.98 11.461 13.92C11.3477 13.86 11.2043 13.83 11.031 13.83C10.8643 13.83 10.721 13.86 10.601 13.92C10.481 13.9733 10.381 14.0467 10.301 14.14C10.221 14.2333 10.1577 14.3433 10.111 14.47C10.071 14.59 10.041 14.7133 10.021 14.84H11.991ZM16.0109 18C15.6709 17.3333 15.3242 16.5533 14.9709 15.66C14.6242 14.7667 14.2942 13.7933 13.9809 12.74H15.5609C15.6275 13 15.7042 13.2833 15.7909 13.59C15.8842 13.89 15.9775 14.1967 16.0709 14.51C16.1709 14.8167 16.2675 15.1167 16.3609 15.41C16.4609 15.7033 16.5575 15.97 16.6509 16.21C16.7375 15.97 16.8309 15.7033 16.9309 15.41C17.0309 15.1167 17.1275 14.8167 17.2209 14.51C17.3209 14.1967 17.4142 13.89 17.5009 13.59C17.5942 13.2833 17.6742 13 17.7409 12.74H19.2809C18.9675 13.7933 18.6342 14.7667 18.2809 15.66C17.9342 16.5533 17.5909 17.3333 17.2509 18H16.0109ZM19.6922 15.41C19.6922 14.9433 19.7622 14.5367 19.9022 14.19C20.0489 13.8367 20.2389 13.5433 20.4722 13.31C20.7055 13.0767 20.9722 12.9 21.2722 12.78C21.5789 12.66 21.8922 12.6 22.2122 12.6C22.9589 12.6 23.5489 12.83 23.9822 13.29C24.4155 13.7433 24.6322 14.4133 24.6322 15.3C24.6322 15.3867 24.6289 15.4833 24.6222 15.59C24.6155 15.69 24.6089 15.78 24.6022 15.86H21.2222C21.2555 16.1667 21.3989 16.41 21.6522 16.59C21.9055 16.77 22.2455 16.86 22.6722 16.86C22.9455 16.86 23.2122 16.8367 23.4722 16.79C23.7389 16.7367 23.9555 16.6733 24.1222 16.6L24.3222 17.81C24.2422 17.85 24.1355 17.89 24.0022 17.93C23.8689 17.97 23.7189 18.0033 23.5522 18.03C23.3922 18.0633 23.2189 18.09 23.0322 18.11C22.8455 18.13 22.6589 18.14 22.4722 18.14C21.9989 18.14 21.5855 18.07 21.2322 17.93C20.8855 17.79 20.5955 17.6 20.3622 17.36C20.1355 17.1133 19.9655 16.8233 19.8522 16.49C19.7455 16.1567 19.6922 15.7967 19.6922 15.41ZM23.1922 14.84C23.1855 14.7133 23.1622 14.59 23.1222 14.47C23.0889 14.35 23.0322 14.2433 22.9522 14.15C22.8789 14.0567 22.7822 13.98 22.6622 13.92C22.5489 13.86 22.4055 13.83 22.2322 13.83C22.0655 13.83 21.9222 13.86 21.8022 13.92C21.6822 13.9733 21.5822 14.0467 21.5022 14.14C21.4222 14.2333 21.3589 14.3433 21.3122 14.47C21.2722 14.59 21.2422 14.7133 21.2222 14.84H23.1922ZM27.882 18.1C27.4487 18.0933 27.0954 18.0467 26.822 17.96C26.5554 17.8733 26.342 17.7533 26.182 17.6C26.0287 17.44 25.922 17.25 25.862 17.03C25.8087 16.8033 25.782 16.55 25.782 16.27V10.48L27.272 10.24V15.97C27.272 16.1033 27.282 16.2233 27.302 16.33C27.322 16.4367 27.3587 16.5267 27.412 16.6C27.472 16.6733 27.5554 16.7333 27.662 16.78C27.7687 16.8267 27.912 16.8567 28.092 16.87L27.882 18.1ZM33.8661 15.36C33.8661 15.7733 33.8061 16.1533 33.6861 16.5C33.5661 16.84 33.3928 17.1333 33.1661 17.38C32.9394 17.62 32.6661 17.8067 32.3461 17.94C32.0328 18.0733 31.6794 18.14 31.2861 18.14C30.8994 18.14 30.5461 18.0733 30.2261 17.94C29.9128 17.8067 29.6428 17.62 29.4161 17.38C29.1894 17.1333 29.0128 16.84 28.8861 16.5C28.7594 16.1533 28.6961 15.7733 28.6961 15.36C28.6961 14.9467 28.7594 14.57 28.8861 14.23C29.0194 13.89 29.1994 13.6 29.4261 13.36C29.6594 13.12 29.9328 12.9333 30.2461 12.8C30.5661 12.6667 30.9128 12.6 31.2861 12.6C31.6661 12.6 32.0128 12.6667 32.3261 12.8C32.6461 12.9333 32.9194 13.12 33.1461 13.36C33.3728 13.6 33.5494 13.89 33.6761 14.23C33.8028 14.57 33.8661 14.9467 33.8661 15.36ZM32.3461 15.36C32.3461 14.9 32.2528 14.54 32.0661 14.28C31.8861 14.0133 31.6261 13.88 31.2861 13.88C30.9461 13.88 30.6828 14.0133 30.4961 14.28C30.3094 14.54 30.2161 14.9 30.2161 15.36C30.2161 15.82 30.3094 16.1867 30.4961 16.46C30.6828 16.7267 30.9461 16.86 31.2861 16.86C31.6261 16.86 31.8861 16.7267 32.0661 16.46C32.2528 16.1867 32.3461 15.82 32.3461 15.36ZM38.3903 15.41C38.3903 14.95 38.287 14.5833 38.0803 14.31C37.8736 14.03 37.567 13.89 37.1603 13.89C37.027 13.89 36.9036 13.8967 36.7903 13.91C36.677 13.9167 36.5836 13.9267 36.5103 13.94V16.63C36.6036 16.69 36.7236 16.74 36.8703 16.78C37.0236 16.82 37.177 16.84 37.3303 16.84C38.037 16.84 38.3903 16.3633 38.3903 15.41ZM39.9103 15.37C39.9103 15.7767 39.8603 16.1467 39.7603 16.48C39.6603 16.8133 39.5136 17.1 39.3203 17.34C39.127 17.58 38.887 17.7667 38.6003 17.9C38.3136 18.0333 37.9836 18.1 37.6103 18.1C37.4036 18.1 37.2103 18.08 37.0303 18.04C36.8503 18 36.677 17.9433 36.5103 17.87V19.85H35.0203V12.92C35.1536 12.88 35.307 12.8433 35.4803 12.81C35.6536 12.77 35.8336 12.7367 36.0203 12.71C36.2136 12.6833 36.407 12.6633 36.6003 12.65C36.8003 12.63 36.9903 12.62 37.1703 12.62C37.6036 12.62 37.9903 12.6867 38.3303 12.82C38.6703 12.9467 38.957 13.13 39.1903 13.37C39.4236 13.6033 39.6003 13.89 39.7203 14.23C39.847 14.57 39.9103 14.95 39.9103 15.37ZM40.8055 15.41C40.8055 14.9433 40.8755 14.5367 41.0155 14.19C41.1621 13.8367 41.3521 13.5433 41.5855 13.31C41.8188 13.0767 42.0855 12.9 42.3855 12.78C42.6921 12.66 43.0055 12.6 43.3255 12.6C44.0721 12.6 44.6621 12.83 45.0955 13.29C45.5288 13.7433 45.7455 14.4133 45.7455 15.3C45.7455 15.3867 45.7421 15.4833 45.7355 15.59C45.7288 15.69 45.7221 15.78 45.7155 15.86H42.3355C42.3688 16.1667 42.5121 16.41 42.7655 16.59C43.0188 16.77 43.3588 16.86 43.7855 16.86C44.0588 16.86 44.3255 16.8367 44.5855 16.79C44.8521 16.7367 45.0688 16.6733 45.2355 16.6L45.4355 17.81C45.3555 17.85 45.2488 17.89 45.1155 17.93C44.9821 17.97 44.8321 18.0033 44.6655 18.03C44.5055 18.0633 44.3321 18.09 44.1455 18.11C43.9588 18.13 43.7721 18.14 43.5855 18.14C43.1121 18.14 42.6988 18.07 42.3455 17.93C41.9988 17.79 41.7088 17.6 41.4755 17.36C41.2488 17.1133 41.0788 16.8233 40.9655 16.49C40.8588 16.1567 40.8055 15.7967 40.8055 15.41ZM44.3055 14.84C44.2988 14.7133 44.2755 14.59 44.2355 14.47C44.2021 14.35 44.1455 14.2433 44.0655 14.15C43.9921 14.0567 43.8955 13.98 43.7755 13.92C43.6621 13.86 43.5188 13.83 43.3455 13.83C43.1788 13.83 43.0355 13.86 42.9155 13.92C42.7955 13.9733 42.6955 14.0467 42.6155 14.14C42.5355 14.2333 42.4721 14.3433 42.4255 14.47C42.3855 14.59 42.3555 14.7133 42.3355 14.84H44.3055ZM48.1653 15.33C48.1653 15.79 48.2686 16.16 48.4753 16.44C48.682 16.72 48.9886 16.86 49.3953 16.86C49.5286 16.86 49.652 16.8567 49.7653 16.85C49.8786 16.8367 49.972 16.8233 50.0453 16.81V14.1C49.952 14.04 49.8286 13.99 49.6753 13.95C49.5286 13.91 49.3786 13.89 49.2253 13.89C48.5186 13.89 48.1653 14.37 48.1653 15.33ZM51.5353 17.83C51.402 17.87 51.2486 17.91 51.0753 17.95C50.902 17.9833 50.7186 18.0133 50.5253 18.04C50.3386 18.0667 50.1453 18.0867 49.9453 18.1C49.752 18.12 49.5653 18.13 49.3853 18.13C48.952 18.13 48.5653 18.0667 48.2253 17.94C47.8853 17.8133 47.5986 17.6333 47.3653 17.4C47.132 17.16 46.952 16.8733 46.8253 16.54C46.7053 16.2 46.6453 15.82 46.6453 15.4C46.6453 14.9733 46.6986 14.59 46.8053 14.25C46.912 13.9033 47.0653 13.61 47.2653 13.37C47.4653 13.13 47.7086 12.9467 47.9953 12.82C48.2886 12.6933 48.622 12.63 48.9953 12.63C49.202 12.63 49.3853 12.65 49.5453 12.69C49.712 12.73 49.8786 12.7867 50.0453 12.86V10.48L51.5353 10.24V17.83ZM58.7028 15.33C58.7028 14.37 58.3495 13.89 57.6428 13.89C57.4895 13.89 57.3361 13.91 57.1828 13.95C57.0361 13.99 56.9161 14.04 56.8228 14.1V16.81C56.8961 16.8233 56.9895 16.8367 57.1028 16.85C57.2161 16.8567 57.3395 16.86 57.4728 16.86C57.8795 16.86 58.1861 16.72 58.3928 16.44C58.5995 16.16 58.7028 15.79 58.7028 15.33ZM60.2228 15.37C60.2228 15.79 60.1595 16.17 60.0328 16.51C59.9128 16.85 59.7361 17.14 59.5028 17.38C59.2695 17.62 58.9828 17.8067 58.6428 17.94C58.3028 18.0667 57.9161 18.13 57.4828 18.13C57.3028 18.13 57.1128 18.12 56.9128 18.1C56.7195 18.0867 56.5261 18.0667 56.3328 18.04C56.1461 18.0133 55.9661 17.9833 55.7928 17.95C55.6195 17.91 55.4661 17.87 55.3328 17.83V10.48L56.8228 10.24V12.86C56.9895 12.7867 57.1628 12.73 57.3428 12.69C57.5228 12.65 57.7161 12.63 57.9228 12.63C58.2961 12.63 58.6261 12.6967 58.9128 12.83C59.1995 12.9567 59.4395 13.14 59.6328 13.38C59.8261 13.62 59.9728 13.91 60.0728 14.25C60.1728 14.5833 60.2228 14.9567 60.2228 15.37ZM65.9013 12.74C65.6013 13.7533 65.2879 14.7033 64.9613 15.59C64.6346 16.4767 64.2779 17.3367 63.8913 18.17C63.7513 18.47 63.6113 18.7233 63.4712 18.93C63.3313 19.1433 63.1779 19.3167 63.0113 19.45C62.8446 19.59 62.6546 19.69 62.4413 19.75C62.2346 19.8167 61.9913 19.85 61.7113 19.85C61.4779 19.85 61.2613 19.8267 61.0613 19.78C60.8679 19.74 60.7079 19.6933 60.5813 19.64L60.8413 18.45C60.9946 18.5033 61.1313 18.54 61.2513 18.56C61.3713 18.58 61.4979 18.59 61.6313 18.59C61.8979 18.59 62.1013 18.5167 62.2413 18.37C62.3879 18.23 62.5113 18.0333 62.6113 17.78C62.2713 17.1133 61.9313 16.3667 61.5913 15.54C61.2513 14.7067 60.9313 13.7733 60.6313 12.74H62.2113C62.2779 13 62.3546 13.2833 62.4413 13.59C62.5346 13.89 62.6313 14.1967 62.7313 14.51C62.8313 14.8167 62.9313 15.1167 63.0312 15.41C63.1379 15.7033 63.2379 15.97 63.3313 16.21C63.4179 15.97 63.5079 15.7033 63.6013 15.41C63.6946 15.1167 63.7846 14.8167 63.8713 14.51C63.9646 14.1967 64.0513 13.89 64.1313 13.59C64.2179 13.2833 64.2946 13 64.3613 12.74H65.9013Z" fill="#A0AABE"/>
<path d="M111.11 18.09C110.73 18.09 110.35 18.0767 109.97 18.05C109.597 18.03 109.207 17.9767 108.8 17.89V11.17C109.12 11.11 109.47 11.0667 109.85 11.04C110.23 11.0067 110.583 10.99 110.91 10.99C111.35 10.99 111.753 11.0233 112.12 11.09C112.493 11.15 112.813 11.2567 113.08 11.41C113.347 11.5633 113.553 11.7667 113.7 12.02C113.853 12.2667 113.93 12.5733 113.93 12.94C113.93 13.4933 113.663 13.93 113.13 14.25C113.57 14.4167 113.87 14.6433 114.03 14.93C114.19 15.2167 114.27 15.54 114.27 15.9C114.27 16.6267 114.003 17.1733 113.47 17.54C112.943 17.9067 112.157 18.09 111.11 18.09ZM110.32 14.98V16.77C110.433 16.7833 110.557 16.7933 110.69 16.8C110.823 16.8067 110.97 16.81 111.13 16.81C111.597 16.81 111.973 16.7433 112.26 16.61C112.547 16.4767 112.69 16.23 112.69 15.87C112.69 15.55 112.57 15.3233 112.33 15.19C112.09 15.05 111.747 14.98 111.3 14.98H110.32ZM110.32 13.79H111.08C111.56 13.79 111.903 13.73 112.11 13.61C112.317 13.4833 112.42 13.2833 112.42 13.01C112.42 12.73 112.313 12.5333 112.1 12.42C111.887 12.3067 111.573 12.25 111.16 12.25C111.027 12.25 110.883 12.2533 110.73 12.26C110.577 12.26 110.44 12.2667 110.32 12.28V13.79ZM120.061 18C119.988 17.76 119.904 17.5133 119.811 17.26C119.724 17.0067 119.638 16.7533 119.551 16.5H116.851C116.764 16.7533 116.674 17.0067 116.581 17.26C116.494 17.5133 116.414 17.76 116.341 18H114.721C114.981 17.2533 115.228 16.5633 115.461 15.93C115.694 15.2967 115.921 14.7 116.141 14.14C116.368 13.58 116.588 13.05 116.801 12.55C117.021 12.0433 117.248 11.55 117.481 11.07H118.971C119.198 11.55 119.421 12.0433 119.641 12.55C119.861 13.05 120.081 13.58 120.301 14.14C120.528 14.7 120.758 15.2967 120.991 15.93C121.224 16.5633 121.471 17.2533 121.731 18H120.061ZM118.191 12.64C118.158 12.74 118.108 12.8767 118.041 13.05C117.974 13.2233 117.898 13.4233 117.811 13.65C117.724 13.8767 117.628 14.1267 117.521 14.4C117.421 14.6733 117.318 14.96 117.211 15.26H119.181C119.074 14.96 118.971 14.6733 118.871 14.4C118.771 14.1267 118.674 13.8767 118.581 13.65C118.494 13.4233 118.418 13.2233 118.351 13.05C118.284 12.8767 118.231 12.74 118.191 12.64ZM126.808 11.07H128.368V18H126.808V15.06H124.188V18H122.628V11.07H124.188V13.72H126.808V11.07ZM129.972 11.07H131.532V18H129.972V11.07ZM135.026 16.81C135.246 16.81 135.426 16.7933 135.566 16.76C135.713 16.72 135.829 16.67 135.916 16.61C136.003 16.5433 136.063 16.4667 136.096 16.38C136.129 16.2933 136.146 16.1967 136.146 16.09C136.146 15.8633 136.039 15.6767 135.826 15.53C135.613 15.3767 135.246 15.2133 134.726 15.04C134.499 14.96 134.273 14.87 134.046 14.77C133.819 14.6633 133.616 14.5333 133.436 14.38C133.256 14.22 133.109 14.03 132.996 13.81C132.883 13.5833 132.826 13.31 132.826 12.99C132.826 12.67 132.886 12.3833 133.006 12.13C133.126 11.87 133.296 11.65 133.516 11.47C133.736 11.29 134.003 11.1533 134.316 11.06C134.629 10.96 134.983 10.91 135.376 10.91C135.843 10.91 136.246 10.96 136.586 11.06C136.926 11.16 137.206 11.27 137.426 11.39L136.976 12.62C136.783 12.52 136.566 12.4333 136.326 12.36C136.093 12.28 135.809 12.24 135.476 12.24C135.103 12.24 134.833 12.2933 134.666 12.4C134.506 12.5 134.426 12.6567 134.426 12.87C134.426 12.9967 134.456 13.1033 134.516 13.19C134.576 13.2767 134.659 13.3567 134.766 13.43C134.879 13.4967 135.006 13.56 135.146 13.62C135.293 13.6733 135.453 13.73 135.626 13.79C135.986 13.9233 136.299 14.0567 136.566 14.19C136.833 14.3167 137.053 14.4667 137.226 14.64C137.406 14.8133 137.539 15.0167 137.626 15.25C137.713 15.4833 137.756 15.7667 137.756 16.1C137.756 16.7467 137.529 17.25 137.076 17.61C136.623 17.9633 135.939 18.14 135.026 18.14C134.719 18.14 134.443 18.12 134.196 18.08C133.949 18.0467 133.729 18.0033 133.536 17.95C133.349 17.8967 133.186 17.84 133.046 17.78C132.913 17.72 132.799 17.6633 132.706 17.61L133.146 16.37C133.353 16.4833 133.606 16.5867 133.906 16.68C134.213 16.7667 134.586 16.81 135.026 16.81ZM140.266 14.53C140.266 14.87 140.306 15.1767 140.386 15.45C140.473 15.7233 140.593 15.96 140.746 16.16C140.906 16.3533 141.1 16.5033 141.326 16.61C141.553 16.7167 141.813 16.77 142.106 16.77C142.393 16.77 142.65 16.7167 142.876 16.61C143.11 16.5033 143.303 16.3533 143.456 16.16C143.616 15.96 143.736 15.7233 143.816 15.45C143.903 15.1767 143.946 14.87 143.946 14.53C143.946 14.19 143.903 13.8833 143.816 13.61C143.736 13.33 143.616 13.0933 143.456 12.9C143.303 12.7 143.11 12.5467 142.876 12.44C142.65 12.3333 142.393 12.28 142.106 12.28C141.813 12.28 141.553 12.3367 141.326 12.45C141.1 12.5567 140.906 12.71 140.746 12.91C140.593 13.1033 140.473 13.34 140.386 13.62C140.306 13.8933 140.266 14.1967 140.266 14.53ZM145.556 14.53C145.556 15.1233 145.466 15.6467 145.286 16.1C145.113 16.5467 144.873 16.9233 144.566 17.23C144.26 17.53 143.893 17.7567 143.466 17.91C143.046 18.0633 142.593 18.14 142.106 18.14C141.633 18.14 141.186 18.0633 140.766 17.91C140.346 17.7567 139.98 17.53 139.666 17.23C139.353 16.9233 139.106 16.5467 138.926 16.1C138.746 15.6467 138.656 15.1233 138.656 14.53C138.656 13.9367 138.75 13.4167 138.936 12.97C139.123 12.5167 139.373 12.1367 139.686 11.83C140.006 11.5233 140.373 11.2933 140.786 11.14C141.206 10.9867 141.646 10.91 142.106 10.91C142.58 10.91 143.026 10.9867 143.446 11.14C143.866 11.2933 144.233 11.5233 144.546 11.83C144.86 12.1367 145.106 12.5167 145.286 12.97C145.466 13.4167 145.556 13.9367 145.556 14.53ZM146.857 18V11.07H151.497V12.38H148.417V13.83H151.157V15.14H148.417V18H146.857ZM157.954 11.07V12.4H155.864V18H154.304V12.4H152.214V11.07H157.954Z" fill="#A0AABE"/>
<defs>
<clipPath id="clip0_104_765">
<rect width="30" height="30" fill="white" transform="translate(72)"/>
</clipPath>
</defs>
</svg>
