<svg width="250" height="36" viewBox="0 0 250 36" fill="none" xmlns="http://www.w3.org/2000/svg">
<path d="M35.6395 35.0076H27.1266V6.63054C27.1266 5.20181 26.262 4.48351 24.5245 4.48351C22.787 4.48351 22.0471 5.25707 22.0471 6.81209V35.0076H13.5342V6.33848C13.5342 5.79383 13.2682 5.35179 12.7278 5.00448C12.1874 4.65716 11.6304 4.47561 11.0568 4.47561C9.36086 4.47561 8.5129 5.19392 8.5129 6.62264V35.0076H0V6.80419C0 4.59401 1.28857 2.84955 3.85741 1.57081C5.94407 0.52097 8.27181 0 10.8406 0C13.7004 0 16.0282 0.639373 17.8239 1.91812C19.7858 0.639373 22.1718 0 24.99 0C27.5173 0 29.8284 0.52097 31.9068 1.57081C34.4008 2.84955 35.6478 4.59401 35.6478 6.80419V35.0076H35.6395Z" fill="#19417D"/>
<path d="M61.3612 29.3063C61.3612 31.5875 60.056 33.332 57.4456 34.5397C55.3672 35.5106 52.9979 36 50.346 36C47.694 36 45.2831 35.5106 43.2463 34.5397C40.5861 33.3399 39.2642 31.5954 39.2642 29.3063V1.16602H47.7771V29.48C47.7771 30.9166 48.6251 31.627 50.3127 31.627C52.0003 31.627 52.8566 30.9087 52.8566 29.48V1.16602H61.3695V29.3063H61.3612Z" fill="#19417D"/>
<path d="M88.92 35.0686H79.9249L73.7314 17.9949V35.0686H65.2185V1.16602H73.7314V16.1716L80.6481 1.16602H88.8701L81.8702 16.6294L88.9116 35.0686H88.92Z" fill="#19417D"/>
<path d="M113.228 35.0083H104.715V18.724H99.6359V35.0083H91.123V6.80485C91.123 4.55521 92.4282 2.81074 95.0386 1.57146C97.1252 0.640032 99.5112 0.174316 102.205 0.174316C104.898 0.174316 107.226 0.640032 109.313 1.57146C111.923 2.81864 113.228 4.55521 113.228 6.80485V35.0083ZM104.715 14.3037V6.6233C104.715 5.19458 103.867 4.47627 102.18 4.47627C100.492 4.47627 99.6359 5.19458 99.6359 6.6233V14.3037H104.715Z" fill="#19417D"/>
<path d="M135.957 35.0686H117.094V1.16602H125.607V30.4114H135.957V35.0607V35.0686Z" fill="#19417D"/>
<path d="M160.082 35.0083H151.57V18.724H146.49V35.0083H137.977V6.80485C137.977 4.55521 139.282 2.81074 141.893 1.57146C143.979 0.640032 146.365 0.174316 149.059 0.174316C151.752 0.174316 154.08 0.640032 156.167 1.57146C158.777 2.81864 160.082 4.55521 160.082 6.80485V35.0083V35.0083ZM151.57 14.3037V6.6233C151.57 5.19458 150.722 4.47627 149.034 4.47627C147.346 4.47627 146.49 5.19458 146.49 6.6233V14.3037H151.57Z" fill="#19417D"/>
<path d="M199.405 35.0076H190.892V6.63054C190.892 5.20181 190.027 4.48351 188.29 4.48351C186.552 4.48351 185.812 5.25707 185.812 6.81209V35.0076H177.3V6.33848C177.3 5.79383 177.025 5.35179 176.493 5.00448C175.953 4.65716 175.396 4.47561 174.814 4.47561C173.118 4.47561 172.278 5.19392 172.278 6.62264V35.0076H163.765V6.80419C163.765 4.59401 165.054 2.84955 167.623 1.57081C169.709 0.52097 172.037 0 174.606 0C177.466 0 179.794 0.639373 181.589 1.91812C183.51 0.639373 185.896 0 188.755 0C191.291 0 193.594 0.52097 195.68 1.57081C198.174 2.84955 199.413 4.59401 199.413 6.80419V35.0076H199.405Z" fill="#19417D"/>
<path d="M225.184 35.0083H216.672V18.724H211.592V35.0083H203.079V6.80485C203.079 4.55521 204.384 2.81074 206.995 1.57146C209.081 0.640032 211.467 0.174316 214.161 0.174316C216.854 0.174316 219.182 0.640032 221.269 1.57146C223.879 2.81864 225.184 4.55521 225.184 6.80485V35.0083V35.0083ZM216.672 14.3037V6.6233C216.672 5.19458 215.824 4.47627 214.136 4.47627C212.448 4.47627 211.592 5.19458 211.592 6.6233V14.3037H216.672Z" fill="#19417D"/>
<path d="M249.992 5.52323H242.643V35.0686H234.13V5.52323H226.723V1.16602H250V5.52323H249.992Z" fill="#19417D"/>
</svg>
