<svg width="155" height="35" viewBox="0 0 155 35" fill="none" xmlns="http://www.w3.org/2000/svg">
<g clip-path="url(#clip0_51_791)">
<path d="M47.8197 25.5028H43.5633V11.3151C43.5633 10.6007 43.131 10.2416 42.2622 10.2416C41.3935 10.2416 41.0235 10.6284 41.0235 11.4058V25.5028H36.7671V11.169C36.7671 10.8967 36.6341 10.6757 36.3639 10.5021C36.0937 10.3284 35.8152 10.2377 35.5284 10.2377C34.6804 10.2377 34.2565 10.5968 34.2565 11.3111V25.5028H30V11.4019C30 10.2969 30.6443 9.42469 31.9287 8.78536C32.972 8.26047 34.1359 8 35.4203 8C36.8502 8 38.0141 8.31967 38.9119 8.959C39.8929 8.31967 41.0859 8 42.495 8C43.7586 8 44.9142 8.26047 45.9534 8.78536C47.2004 9.42469 47.8239 10.2969 47.8239 11.4019V25.5028H47.8197Z" fill="white"/>
<path d="M60.6805 22.6533C60.6805 23.7938 60.0279 24.666 58.7227 25.2698C57.6836 25.7552 56.4989 25.9999 55.1729 25.9999C53.8469 25.9999 52.6415 25.7552 51.6231 25.2698C50.293 24.67 49.632 23.7978 49.632 22.6533V8.58398H53.8885V22.7401C53.8885 23.4584 54.3125 23.8136 55.1563 23.8136C56.0001 23.8136 56.4282 23.4544 56.4282 22.7401V8.58398H60.6847V22.6533H60.6805Z" fill="white"/>
<path d="M74.46 25.5342H69.9624L66.8657 16.9979V25.5342H62.6092V8.58398H66.8657V16.0863L70.3241 8.58398H74.435L70.9351 16.3152L74.4558 25.5342H74.46Z" fill="white"/>
<path d="M86.6141 25.5027H82.3577V17.3611H79.8179V25.5027H75.5615V11.4019C75.5615 10.2771 76.2141 9.40493 77.5193 8.78532C78.5626 8.31964 79.7556 8.08679 81.1024 8.08679C82.4491 8.08679 83.613 8.31964 84.6563 8.78532C85.9615 9.40887 86.6141 10.2771 86.6141 11.4019V25.5027ZM82.3577 15.151V11.3111C82.3577 10.5968 81.9337 10.2376 81.0899 10.2376C80.2461 10.2376 79.8179 10.5968 79.8179 11.3111V15.151H82.3577Z" fill="white"/>
<path d="M97.9785 25.5342H88.547V8.58398H92.8035V23.2058H97.9785V25.5303V25.5342Z" fill="white"/>
<path d="M110.041 25.5027H105.785V17.3611H103.245V25.5027H98.9886V11.4019C98.9886 10.2771 99.6412 9.40493 100.946 8.78532C101.99 8.31964 103.183 8.08679 104.529 8.08679C105.876 8.08679 107.04 8.31964 108.083 8.78532C109.389 9.40887 110.041 10.2771 110.041 11.4019V25.5027ZM105.785 15.151V11.3111C105.785 10.5968 105.361 10.2376 104.517 10.2376C103.673 10.2376 103.245 10.5968 103.245 11.3111V15.151H105.785Z" fill="white"/>
<path d="M129.702 25.5028H125.446V11.3151C125.446 10.6007 125.014 10.2416 124.145 10.2416C123.276 10.2416 122.906 10.6284 122.906 11.4058V25.5028H118.65V11.169C118.65 10.8967 118.513 10.6757 118.247 10.5021C117.976 10.3284 117.698 10.2377 117.407 10.2377C116.559 10.2377 116.139 10.5968 116.139 11.3111V25.5028H111.883V11.4019C111.883 10.2969 112.527 9.42469 113.811 8.78536C114.855 8.26047 116.019 8 117.303 8C118.733 8 119.897 8.31967 120.795 8.959C121.755 8.31967 122.948 8 124.378 8C125.645 8 126.797 8.26047 127.84 8.78536C129.087 9.42469 129.707 10.2969 129.707 11.4019V25.5028H129.702Z" fill="white"/>
<path d="M142.592 25.5027H138.336V17.3611H135.796V25.5027H131.54V11.4019C131.54 10.2771 132.192 9.40493 133.497 8.78532C134.541 8.31964 135.734 8.08679 137.081 8.08679C138.427 8.08679 139.591 8.31964 140.634 8.78532C141.94 9.40887 142.592 10.2771 142.592 11.4019V25.5027ZM138.336 15.151V11.3111C138.336 10.5968 137.912 10.2376 137.068 10.2376C136.224 10.2376 135.796 10.5968 135.796 11.3111V15.151H138.336Z" fill="white"/>
<path d="M154.996 10.7625H151.321V25.5342H147.065V10.7625H143.361V8.58398H155V10.7625H154.996Z" fill="white"/>
<path d="M2 8.06667V24C2 26.2091 3.79086 28 6 28H19.6667C21.8758 28 23.6667 26.2091 23.6667 24V2" stroke="#1662F3" stroke-width="3" stroke-linecap="round" stroke-linejoin="round"/>
<path d="M19.3333 12.4H15.8667" stroke="#1662F3" stroke-width="3" stroke-linecap="round" stroke-linejoin="round"/>
<path d="M19.3333 17.6H6.33333" stroke="#1662F3" stroke-width="3" stroke-linecap="round" stroke-linejoin="round"/>
<path d="M19.3333 22.8H6.33333" stroke="#1662F3" stroke-width="3" stroke-linecap="round" stroke-linejoin="round"/>
<path d="M6.33333 8.06667L9.8 12.4L20.2 2" stroke="#1662F3" stroke-width="3" stroke-linecap="round" stroke-linejoin="round"/>
<path d="M98.62 28.8C99.204 28.8 99.652 28.912 99.964 29.136C100.28 29.356 100.438 29.686 100.438 30.126C100.438 30.366 100.394 30.572 100.306 30.744C100.222 30.912 100.098 31.05 99.934 31.158C99.774 31.262 99.578 31.338 99.346 31.386C99.114 31.434 98.852 31.458 98.56 31.458H98.098V33H97.516V28.902C97.68 28.862 97.862 28.836 98.062 28.824C98.266 28.808 98.452 28.8 98.62 28.8ZM98.668 29.31C98.42 29.31 98.23 29.316 98.098 29.328V30.96H98.536C98.736 30.96 98.916 30.948 99.076 30.924C99.236 30.896 99.37 30.852 99.478 30.792C99.59 30.728 99.676 30.642 99.736 30.534C99.796 30.426 99.826 30.288 99.826 30.12C99.826 29.96 99.794 29.828 99.73 29.724C99.67 29.62 99.586 29.538 99.478 29.478C99.374 29.414 99.252 29.37 99.112 29.346C98.972 29.322 98.824 29.31 98.668 29.31ZM101.13 33V28.44L101.688 28.344V29.94C101.792 29.9 101.902 29.87 102.018 29.85C102.138 29.826 102.256 29.814 102.372 29.814C102.62 29.814 102.826 29.85 102.99 29.922C103.154 29.99 103.284 30.088 103.38 30.216C103.48 30.34 103.55 30.49 103.59 30.666C103.63 30.842 103.65 31.036 103.65 31.248V33H103.092V31.368C103.092 31.176 103.078 31.012 103.05 30.876C103.026 30.74 102.984 30.63 102.924 30.546C102.864 30.462 102.784 30.402 102.684 30.366C102.584 30.326 102.46 30.306 102.312 30.306C102.252 30.306 102.19 30.31 102.126 30.318C102.062 30.326 102 30.336 101.94 30.348C101.884 30.356 101.832 30.366 101.784 30.378C101.74 30.39 101.708 30.4 101.688 30.408V33H101.13ZM107.312 31.44C107.312 31.688 107.276 31.912 107.204 32.112C107.132 32.312 107.03 32.484 106.898 32.628C106.77 32.772 106.616 32.884 106.436 32.964C106.256 33.04 106.06 33.078 105.848 33.078C105.636 33.078 105.44 33.04 105.26 32.964C105.08 32.884 104.924 32.772 104.792 32.628C104.664 32.484 104.564 32.312 104.492 32.112C104.42 31.912 104.384 31.688 104.384 31.44C104.384 31.196 104.42 30.974 104.492 30.774C104.564 30.57 104.664 30.396 104.792 30.252C104.924 30.108 105.08 29.998 105.26 29.922C105.44 29.842 105.636 29.802 105.848 29.802C106.06 29.802 106.256 29.842 106.436 29.922C106.616 29.998 106.77 30.108 106.898 30.252C107.03 30.396 107.132 30.57 107.204 30.774C107.276 30.974 107.312 31.196 107.312 31.44ZM106.73 31.44C106.73 31.088 106.65 30.81 106.49 30.606C106.334 30.398 106.12 30.294 105.848 30.294C105.576 30.294 105.36 30.398 105.2 30.606C105.044 30.81 104.966 31.088 104.966 31.44C104.966 31.792 105.044 32.072 105.2 32.28C105.36 32.484 105.576 32.586 105.848 32.586C106.12 32.586 106.334 32.484 106.49 32.28C106.65 32.072 106.73 31.792 106.73 31.44ZM108.097 29.97C108.225 29.938 108.395 29.904 108.607 29.868C108.819 29.832 109.063 29.814 109.339 29.814C109.587 29.814 109.793 29.85 109.957 29.922C110.121 29.99 110.251 30.088 110.347 30.216C110.447 30.34 110.517 30.49 110.557 30.666C110.597 30.842 110.617 31.036 110.617 31.248V33H110.059V31.368C110.059 31.176 110.045 31.012 110.017 30.876C109.993 30.74 109.951 30.63 109.891 30.546C109.831 30.462 109.751 30.402 109.651 30.366C109.551 30.326 109.427 30.306 109.279 30.306C109.219 30.306 109.157 30.308 109.093 30.312C109.029 30.316 108.967 30.322 108.907 30.33C108.851 30.334 108.799 30.34 108.751 30.348C108.707 30.356 108.675 30.362 108.655 30.366V33H108.097V29.97ZM111.369 31.446C111.369 31.17 111.409 30.93 111.489 30.726C111.569 30.518 111.675 30.346 111.807 30.21C111.939 30.074 112.091 29.972 112.263 29.904C112.435 29.836 112.611 29.802 112.791 29.802C113.211 29.802 113.533 29.934 113.757 30.198C113.981 30.458 114.092 30.856 114.092 31.392C114.092 31.416 114.092 31.448 114.092 31.488C114.092 31.524 114.09 31.558 114.087 31.59H111.951C111.975 31.914 112.069 32.16 112.233 32.328C112.397 32.496 112.653 32.58 113.001 32.58C113.197 32.58 113.361 32.564 113.493 32.532C113.629 32.496 113.731 32.462 113.799 32.43L113.877 32.898C113.809 32.934 113.689 32.972 113.517 33.012C113.349 33.052 113.157 33.072 112.941 33.072C112.669 33.072 112.433 33.032 112.233 32.952C112.037 32.868 111.875 32.754 111.747 32.61C111.619 32.466 111.523 32.296 111.458 32.1C111.399 31.9 111.369 31.682 111.369 31.446ZM113.511 31.14C113.515 30.888 113.451 30.682 113.319 30.522C113.191 30.358 113.013 30.276 112.785 30.276C112.657 30.276 112.543 30.302 112.443 30.354C112.347 30.402 112.265 30.466 112.197 30.546C112.129 30.626 112.075 30.718 112.035 30.822C111.999 30.926 111.975 31.032 111.963 31.14H113.511ZM117.441 33.036C117.357 33.036 117.265 33.034 117.165 33.03C117.069 33.026 116.971 33.02 116.871 33.012C116.775 33.004 116.679 32.994 116.583 32.982C116.487 32.97 116.399 32.954 116.319 32.934V28.902C116.399 28.882 116.487 28.866 116.583 28.854C116.679 28.842 116.775 28.832 116.871 28.824C116.971 28.816 117.069 28.81 117.165 28.806C117.261 28.802 117.351 28.8 117.435 28.8C117.675 28.8 117.899 28.818 118.107 28.854C118.319 28.89 118.501 28.952 118.653 29.04C118.809 29.124 118.931 29.236 119.019 29.376C119.107 29.516 119.151 29.688 119.151 29.892C119.151 30.12 119.097 30.308 118.989 30.456C118.881 30.6 118.737 30.708 118.557 30.78C118.801 30.852 118.995 30.966 119.139 31.122C119.283 31.278 119.355 31.498 119.355 31.782C119.355 32.198 119.201 32.512 118.893 32.724C118.589 32.932 118.105 33.036 117.441 33.036ZM116.895 31.062V32.526C116.939 32.53 116.991 32.534 117.051 32.538C117.103 32.542 117.163 32.546 117.231 32.55C117.303 32.55 117.385 32.55 117.477 32.55C117.649 32.55 117.811 32.54 117.963 32.52C118.119 32.496 118.255 32.456 118.371 32.4C118.487 32.344 118.579 32.266 118.647 32.166C118.719 32.066 118.755 31.94 118.755 31.788C118.755 31.652 118.729 31.538 118.677 31.446C118.625 31.35 118.549 31.274 118.449 31.218C118.353 31.162 118.237 31.122 118.101 31.098C117.965 31.074 117.813 31.062 117.645 31.062H116.895ZM116.895 30.594H117.507C117.651 30.594 117.787 30.584 117.915 30.564C118.043 30.544 118.153 30.508 118.245 30.456C118.341 30.404 118.415 30.336 118.467 30.252C118.523 30.168 118.551 30.062 118.551 29.934C118.551 29.814 118.523 29.714 118.467 29.634C118.411 29.55 118.333 29.484 118.233 29.436C118.137 29.384 118.023 29.346 117.891 29.322C117.759 29.298 117.619 29.286 117.471 29.286C117.323 29.286 117.207 29.288 117.123 29.292C117.039 29.296 116.963 29.302 116.895 29.31V30.594ZM120.696 33H120.138V29.88H120.696V33ZM120.414 29.316C120.314 29.316 120.228 29.284 120.156 29.22C120.088 29.152 120.054 29.062 120.054 28.95C120.054 28.838 120.088 28.75 120.156 28.686C120.228 28.618 120.314 28.584 120.414 28.584C120.514 28.584 120.598 28.618 120.666 28.686C120.738 28.75 120.774 28.838 120.774 28.95C120.774 29.062 120.738 29.152 120.666 29.22C120.598 29.284 120.514 29.316 120.414 29.316ZM122.592 33.06C122.248 33.052 122.004 32.978 121.86 32.838C121.716 32.698 121.644 32.48 121.644 32.184V28.44L122.202 28.344V32.094C122.202 32.186 122.21 32.262 122.226 32.322C122.242 32.382 122.268 32.43 122.304 32.466C122.34 32.502 122.388 32.53 122.448 32.55C122.508 32.566 122.582 32.58 122.67 32.592L122.592 33.06ZM124.232 33.06C123.888 33.052 123.644 32.978 123.5 32.838C123.356 32.698 123.284 32.48 123.284 32.184V28.44L123.842 28.344V32.094C123.842 32.186 123.85 32.262 123.866 32.322C123.882 32.382 123.908 32.43 123.944 32.466C123.98 32.502 124.028 32.53 124.088 32.55C124.148 32.566 124.222 32.58 124.31 32.592L124.232 33.06ZM125.495 33H124.937V29.88H125.495V33ZM125.213 29.316C125.113 29.316 125.027 29.284 124.955 29.22C124.887 29.152 124.853 29.062 124.853 28.95C124.853 28.838 124.887 28.75 124.955 28.686C125.027 28.618 125.113 28.584 125.213 28.584C125.313 28.584 125.397 28.618 125.465 28.686C125.537 28.75 125.573 28.838 125.573 28.95C125.573 29.062 125.537 29.152 125.465 29.22C125.397 29.284 125.313 29.316 125.213 29.316ZM126.455 29.97C126.583 29.938 126.753 29.904 126.965 29.868C127.177 29.832 127.421 29.814 127.697 29.814C127.945 29.814 128.151 29.85 128.315 29.922C128.479 29.99 128.609 30.088 128.705 30.216C128.805 30.34 128.875 30.49 128.915 30.666C128.955 30.842 128.975 31.036 128.975 31.248V33H128.417V31.368C128.417 31.176 128.403 31.012 128.375 30.876C128.351 30.74 128.309 30.63 128.249 30.546C128.189 30.462 128.109 30.402 128.009 30.366C127.909 30.326 127.785 30.306 127.637 30.306C127.577 30.306 127.515 30.308 127.451 30.312C127.387 30.316 127.325 30.322 127.265 30.33C127.209 30.334 127.157 30.34 127.109 30.348C127.065 30.356 127.033 30.362 127.013 30.366V33H126.455V29.97ZM131.856 32.688C131.808 32.72 131.714 32.762 131.574 32.814C131.438 32.862 131.278 32.886 131.094 32.886C130.906 32.886 130.728 32.856 130.56 32.796C130.396 32.736 130.252 32.644 130.128 32.52C130.004 32.392 129.906 32.234 129.834 32.046C129.762 31.858 129.726 31.634 129.726 31.374C129.726 31.146 129.76 30.938 129.828 30.75C129.896 30.558 129.994 30.394 130.122 30.258C130.254 30.118 130.414 30.01 130.602 29.934C130.79 29.854 131.002 29.814 131.238 29.814C131.498 29.814 131.724 29.834 131.916 29.874C132.112 29.91 132.276 29.944 132.408 29.976V32.76C132.408 33.24 132.284 33.588 132.036 33.804C131.788 34.02 131.412 34.128 130.908 34.128C130.712 34.128 130.526 34.112 130.35 34.08C130.178 34.048 130.028 34.01 129.9 33.966L130.002 33.48C130.114 33.524 130.25 33.562 130.41 33.594C130.574 33.63 130.744 33.648 130.92 33.648C131.252 33.648 131.49 33.582 131.634 33.45C131.782 33.318 131.856 33.108 131.856 32.82V32.688ZM131.85 30.372C131.794 30.356 131.718 30.342 131.622 30.33C131.53 30.314 131.404 30.306 131.244 30.306C130.944 30.306 130.712 30.404 130.548 30.6C130.388 30.796 130.308 31.056 130.308 31.38C130.308 31.56 130.33 31.714 130.374 31.842C130.422 31.97 130.484 32.076 130.56 32.16C130.64 32.244 130.73 32.306 130.83 32.346C130.934 32.386 131.04 32.406 131.148 32.406C131.296 32.406 131.432 32.386 131.556 32.346C131.68 32.302 131.778 32.252 131.85 32.196V30.372ZM135.759 32.586C136.367 32.586 136.671 32.378 136.671 31.962C136.671 31.834 136.643 31.726 136.587 31.638C136.535 31.546 136.463 31.468 136.371 31.404C136.279 31.336 136.173 31.278 136.053 31.23C135.937 31.182 135.813 31.134 135.681 31.086C135.529 31.034 135.385 30.976 135.249 30.912C135.113 30.844 134.995 30.766 134.895 30.678C134.795 30.586 134.715 30.478 134.655 30.354C134.599 30.23 134.571 30.08 134.571 29.904C134.571 29.54 134.695 29.256 134.943 29.052C135.191 28.848 135.533 28.746 135.969 28.746C136.221 28.746 136.449 28.774 136.653 28.83C136.861 28.882 137.013 28.94 137.109 29.004L136.923 29.478C136.839 29.426 136.713 29.376 136.545 29.328C136.381 29.276 136.189 29.25 135.969 29.25C135.857 29.25 135.753 29.262 135.657 29.286C135.561 29.31 135.477 29.346 135.405 29.394C135.333 29.442 135.275 29.504 135.231 29.58C135.191 29.652 135.171 29.738 135.171 29.838C135.171 29.95 135.193 30.044 135.237 30.12C135.281 30.196 135.343 30.264 135.423 30.324C135.503 30.38 135.595 30.432 135.699 30.48C135.807 30.528 135.925 30.576 136.053 30.624C136.233 30.696 136.397 30.768 136.545 30.84C136.697 30.912 136.827 30.998 136.935 31.098C137.047 31.198 137.133 31.318 137.193 31.458C137.253 31.594 137.283 31.76 137.283 31.956C137.283 32.32 137.149 32.6 136.881 32.796C136.617 32.992 136.243 33.09 135.759 33.09C135.595 33.09 135.443 33.078 135.303 33.054C135.167 33.034 135.045 33.01 134.937 32.982C134.829 32.95 134.735 32.918 134.655 32.886C134.579 32.85 134.519 32.82 134.475 32.796L134.649 32.316C134.741 32.368 134.881 32.426 135.069 32.49C135.257 32.554 135.487 32.586 135.759 32.586ZM137.585 33.582C137.629 33.602 137.685 33.62 137.753 33.636C137.825 33.656 137.895 33.666 137.963 33.666C138.183 33.666 138.355 33.616 138.479 33.516C138.603 33.42 138.715 33.262 138.815 33.042C138.563 32.562 138.327 32.054 138.107 31.518C137.891 30.978 137.711 30.432 137.567 29.88H138.167C138.211 30.06 138.263 30.254 138.323 30.462C138.387 30.67 138.457 30.884 138.533 31.104C138.609 31.324 138.691 31.544 138.779 31.764C138.867 31.984 138.959 32.196 139.055 32.4C139.207 31.98 139.339 31.564 139.451 31.152C139.563 30.74 139.669 30.316 139.769 29.88H140.345C140.201 30.468 140.041 31.034 139.865 31.578C139.689 32.118 139.499 32.624 139.295 33.096C139.215 33.276 139.131 33.43 139.043 33.558C138.959 33.69 138.865 33.798 138.761 33.882C138.657 33.966 138.539 34.028 138.407 34.068C138.279 34.108 138.133 34.128 137.969 34.128C137.925 34.128 137.879 34.124 137.831 34.116C137.783 34.112 137.735 34.104 137.687 34.092C137.643 34.084 137.601 34.074 137.561 34.062C137.525 34.05 137.499 34.04 137.483 34.032L137.585 33.582ZM141.659 32.598C141.887 32.598 142.055 32.568 142.163 32.508C142.275 32.448 142.331 32.352 142.331 32.22C142.331 32.084 142.277 31.976 142.169 31.896C142.061 31.816 141.883 31.726 141.635 31.626C141.515 31.578 141.399 31.53 141.287 31.482C141.179 31.43 141.085 31.37 141.005 31.302C140.925 31.234 140.861 31.152 140.813 31.056C140.765 30.96 140.741 30.842 140.741 30.702C140.741 30.426 140.843 30.208 141.047 30.048C141.251 29.884 141.529 29.802 141.881 29.802C141.969 29.802 142.057 29.808 142.145 29.82C142.233 29.828 142.315 29.84 142.391 29.856C142.467 29.868 142.533 29.882 142.589 29.898C142.649 29.914 142.695 29.928 142.727 29.94L142.625 30.42C142.565 30.388 142.471 30.356 142.343 30.324C142.215 30.288 142.061 30.27 141.881 30.27C141.725 30.27 141.589 30.302 141.473 30.366C141.357 30.426 141.299 30.522 141.299 30.654C141.299 30.722 141.311 30.782 141.335 30.834C141.363 30.886 141.403 30.934 141.455 30.978C141.511 31.018 141.579 31.056 141.659 31.092C141.739 31.128 141.835 31.166 141.947 31.206C142.095 31.262 142.227 31.318 142.343 31.374C142.459 31.426 142.557 31.488 142.637 31.56C142.721 31.632 142.785 31.72 142.829 31.824C142.873 31.924 142.895 32.048 142.895 32.196C142.895 32.484 142.787 32.702 142.571 32.85C142.359 32.998 142.055 33.072 141.659 33.072C141.383 33.072 141.167 33.048 141.011 33C140.855 32.956 140.749 32.922 140.693 32.898L140.795 32.418C140.859 32.442 140.961 32.478 141.101 32.526C141.241 32.574 141.427 32.598 141.659 32.598ZM144.133 29.88H145.315V30.348H144.133V31.788C144.133 31.944 144.145 32.074 144.169 32.178C144.193 32.278 144.229 32.358 144.277 32.418C144.325 32.474 144.385 32.514 144.457 32.538C144.529 32.562 144.613 32.574 144.709 32.574C144.877 32.574 145.011 32.556 145.111 32.52C145.215 32.48 145.287 32.452 145.327 32.436L145.435 32.898C145.379 32.926 145.281 32.96 145.141 33C145.001 33.044 144.841 33.066 144.661 33.066C144.449 33.066 144.273 33.04 144.133 32.988C143.997 32.932 143.887 32.85 143.803 32.742C143.719 32.634 143.659 32.502 143.623 32.346C143.591 32.186 143.575 32.002 143.575 31.794V29.01L144.133 28.914V29.88ZM145.792 31.446C145.792 31.17 145.832 30.93 145.912 30.726C145.992 30.518 146.098 30.346 146.23 30.21C146.362 30.074 146.514 29.972 146.686 29.904C146.858 29.836 147.034 29.802 147.214 29.802C147.634 29.802 147.956 29.934 148.18 30.198C148.404 30.458 148.516 30.856 148.516 31.392C148.516 31.416 148.516 31.448 148.516 31.488C148.516 31.524 148.514 31.558 148.51 31.59H146.374C146.398 31.914 146.492 32.16 146.656 32.328C146.82 32.496 147.076 32.58 147.424 32.58C147.62 32.58 147.784 32.564 147.916 32.532C148.052 32.496 148.154 32.462 148.222 32.43L148.3 32.898C148.232 32.934 148.112 32.972 147.94 33.012C147.772 33.052 147.58 33.072 147.364 33.072C147.092 33.072 146.856 33.032 146.656 32.952C146.46 32.868 146.298 32.754 146.17 32.61C146.042 32.466 145.946 32.296 145.882 32.1C145.822 31.9 145.792 31.682 145.792 31.446ZM147.934 31.14C147.938 30.888 147.874 30.682 147.742 30.522C147.614 30.358 147.436 30.276 147.208 30.276C147.08 30.276 146.966 30.302 146.866 30.354C146.77 30.402 146.688 30.466 146.62 30.546C146.552 30.626 146.498 30.718 146.458 30.822C146.422 30.926 146.398 31.032 146.386 31.14H147.934ZM149.318 29.97C149.446 29.938 149.614 29.904 149.822 29.868C150.034 29.832 150.278 29.814 150.554 29.814C150.754 29.814 150.922 29.842 151.058 29.898C151.194 29.95 151.308 30.028 151.4 30.132C151.428 30.112 151.472 30.084 151.532 30.048C151.592 30.012 151.666 29.978 151.754 29.946C151.842 29.91 151.94 29.88 152.048 29.856C152.156 29.828 152.272 29.814 152.396 29.814C152.636 29.814 152.832 29.85 152.984 29.922C153.136 29.99 153.254 30.088 153.338 30.216C153.426 30.344 153.484 30.496 153.512 30.672C153.544 30.848 153.56 31.04 153.56 31.248V33H153.002V31.368C153.002 31.184 152.992 31.026 152.972 30.894C152.956 30.762 152.922 30.652 152.87 30.564C152.822 30.476 152.754 30.412 152.666 30.372C152.582 30.328 152.472 30.306 152.336 30.306C152.148 30.306 151.992 30.332 151.868 30.384C151.748 30.432 151.666 30.476 151.622 30.516C151.654 30.62 151.678 30.734 151.694 30.858C151.71 30.982 151.718 31.112 151.718 31.248V33H151.16V31.368C151.16 31.184 151.15 31.026 151.13 30.894C151.11 30.762 151.074 30.652 151.022 30.564C150.974 30.476 150.906 30.412 150.818 30.372C150.734 30.328 150.626 30.306 150.494 30.306C150.438 30.306 150.378 30.308 150.314 30.312C150.25 30.316 150.188 30.322 150.128 30.33C150.072 30.334 150.02 30.34 149.972 30.348C149.924 30.356 149.892 30.362 149.876 30.366V33H149.318V29.97Z" fill="white"/>
</g>
<defs>
<clipPath id="clip0_51_791">
<rect width="155" height="35" fill="white"/>
</clipPath>
</defs>
</svg>
