<svg width="95" height="10" viewBox="0 0 95 10" fill="none" xmlns="http://www.w3.org/2000/svg">
<path d="M2.7 1C3.67333 1 4.42 1.18667 4.94 1.56C5.46667 1.92667 5.73 2.47667 5.73 3.21C5.73 3.61 5.65667 3.95333 5.51 4.24C5.37 4.52 5.16333 4.75 4.89 4.93C4.62333 5.10333 4.29667 5.23 3.91 5.31C3.52333 5.39 3.08667 5.43 2.6 5.43H1.83V8H0.86V1.17C1.13333 1.10333 1.43667 1.06 1.77 1.04C2.11 1.01333 2.42 1 2.7 1ZM2.78 1.85C2.36667 1.85 2.05 1.86 1.83 1.88V4.6H2.56C2.89333 4.6 3.19333 4.58 3.46 4.54C3.72667 4.49333 3.95 4.42 4.13 4.32C4.31667 4.21333 4.46 4.07 4.56 3.89C4.66 3.71 4.71 3.48 4.71 3.2C4.71 2.93333 4.65667 2.71333 4.55 2.54C4.45 2.36667 4.31 2.23 4.13 2.13C3.95667 2.02333 3.75333 1.95 3.52 1.91C3.28667 1.87 3.04 1.85 2.78 1.85ZM6.88398 8V0.399999L7.81398 0.24V2.9C7.98732 2.83333 8.17065 2.78333 8.36398 2.75C8.56398 2.71 8.76065 2.69 8.95398 2.69C9.36732 2.69 9.71065 2.75 9.98398 2.87C10.2573 2.98333 10.474 3.14667 10.634 3.36C10.8007 3.56667 10.9173 3.81667 10.984 4.11C11.0507 4.40333 11.084 4.72667 11.084 5.08V8H10.154V5.28C10.154 4.96 10.1307 4.68667 10.084 4.46C10.044 4.23333 9.97398 4.05 9.87398 3.91C9.77398 3.77 9.64065 3.67 9.47398 3.61C9.30732 3.54333 9.10065 3.51 8.85398 3.51C8.75398 3.51 8.65065 3.51667 8.54398 3.53C8.43732 3.54333 8.33398 3.56 8.23398 3.58C8.14065 3.59333 8.05398 3.61 7.97398 3.63C7.90065 3.65 7.84732 3.66667 7.81398 3.68V8H6.88398ZM17.1869 5.4C17.1869 5.81333 17.1269 6.18667 17.0069 6.52C16.8869 6.85333 16.7169 7.14 16.4969 7.38C16.2835 7.62 16.0269 7.80667 15.7269 7.94C15.4269 8.06667 15.1002 8.13 14.7469 8.13C14.3935 8.13 14.0669 8.06667 13.7669 7.94C13.4669 7.80667 13.2069 7.62 12.9869 7.38C12.7735 7.14 12.6069 6.85333 12.4869 6.52C12.3669 6.18667 12.3069 5.81333 12.3069 5.4C12.3069 4.99333 12.3669 4.62333 12.4869 4.29C12.6069 3.95 12.7735 3.66 12.9869 3.42C13.2069 3.18 13.4669 2.99667 13.7669 2.87C14.0669 2.73667 14.3935 2.67 14.7469 2.67C15.1002 2.67 15.4269 2.73667 15.7269 2.87C16.0269 2.99667 16.2835 3.18 16.4969 3.42C16.7169 3.66 16.8869 3.95 17.0069 4.29C17.1269 4.62333 17.1869 4.99333 17.1869 5.4ZM16.2169 5.4C16.2169 4.81333 16.0835 4.35 15.8169 4.01C15.5569 3.66333 15.2002 3.49 14.7469 3.49C14.2935 3.49 13.9335 3.66333 13.6669 4.01C13.4069 4.35 13.2769 4.81333 13.2769 5.4C13.2769 5.98667 13.4069 6.45333 13.6669 6.8C13.9335 7.14 14.2935 7.31 14.7469 7.31C15.2002 7.31 15.5569 7.14 15.8169 6.8C16.0835 6.45333 16.2169 5.98667 16.2169 5.4ZM18.4953 2.95C18.7086 2.89667 18.992 2.84 19.3453 2.78C19.6986 2.72 20.1053 2.69 20.5653 2.69C20.9786 2.69 21.322 2.75 21.5953 2.87C21.8686 2.98333 22.0853 3.14667 22.2453 3.36C22.412 3.56667 22.5286 3.81667 22.5953 4.11C22.662 4.40333 22.6953 4.72667 22.6953 5.08V8H21.7653V5.28C21.7653 4.96 21.742 4.68667 21.6953 4.46C21.6553 4.23333 21.5853 4.05 21.4853 3.91C21.3853 3.77 21.252 3.67 21.0853 3.61C20.9186 3.54333 20.712 3.51 20.4653 3.51C20.3653 3.51 20.262 3.51333 20.1553 3.52C20.0486 3.52667 19.9453 3.53667 19.8453 3.55C19.752 3.55667 19.6653 3.56667 19.5853 3.58C19.512 3.59333 19.4586 3.60333 19.4253 3.61V8H18.4953V2.95ZM23.9475 5.41C23.9475 4.95 24.0142 4.55 24.1475 4.21C24.2808 3.86333 24.4575 3.57667 24.6775 3.35C24.8975 3.12333 25.1508 2.95333 25.4375 2.84C25.7242 2.72667 26.0175 2.67 26.3175 2.67C27.0175 2.67 27.5542 2.89 27.9275 3.33C28.3008 3.76333 28.4875 4.42667 28.4875 5.32C28.4875 5.36 28.4875 5.41333 28.4875 5.48C28.4875 5.54 28.4842 5.59667 28.4775 5.65H24.9175C24.9575 6.19 25.1142 6.6 25.3875 6.88C25.6608 7.16 26.0875 7.3 26.6675 7.3C26.9942 7.3 27.2675 7.27333 27.4875 7.22C27.7142 7.16 27.8842 7.10333 27.9975 7.05L28.1275 7.83C28.0142 7.89 27.8142 7.95333 27.5275 8.02C27.2475 8.08667 26.9275 8.12 26.5675 8.12C26.1142 8.12 25.7208 8.05333 25.3875 7.92C25.0608 7.78 24.7908 7.59 24.5775 7.35C24.3642 7.11 24.2042 6.82667 24.0975 6.5C23.9975 6.16667 23.9475 5.80333 23.9475 5.41ZM27.5175 4.9C27.5242 4.48 27.4175 4.13667 27.1975 3.87C26.9842 3.59667 26.6875 3.46 26.3075 3.46C26.0942 3.46 25.9042 3.50333 25.7375 3.59C25.5775 3.67 25.4408 3.77667 25.3275 3.91C25.2142 4.04333 25.1242 4.19667 25.0575 4.37C24.9975 4.54333 24.9575 4.72 24.9375 4.9H27.5175ZM34.0679 8.06C33.9279 8.06 33.7746 8.05667 33.6079 8.05C33.4479 8.04333 33.2846 8.03333 33.1179 8.02C32.9579 8.00667 32.7979 7.99 32.6379 7.97C32.4779 7.95 32.3312 7.92333 32.1979 7.89V1.17C32.3312 1.13667 32.4779 1.11 32.6379 1.09C32.7979 1.07 32.9579 1.05333 33.1179 1.04C33.2846 1.02667 33.4479 1.01667 33.6079 1.01C33.7679 1.00333 33.9179 1 34.0579 1C34.4579 1 34.8312 1.03 35.1779 1.09C35.5312 1.15 35.8346 1.25333 36.0879 1.4C36.3479 1.54 36.5512 1.72667 36.6979 1.96C36.8446 2.19333 36.9179 2.48 36.9179 2.82C36.9179 3.2 36.8279 3.51333 36.6479 3.76C36.4679 4 36.2279 4.18 35.9279 4.3C36.3346 4.42 36.6579 4.61 36.8979 4.87C37.1379 5.13 37.2579 5.49667 37.2579 5.97C37.2579 6.66333 37.0012 7.18667 36.4879 7.54C35.9812 7.88667 35.1746 8.06 34.0679 8.06ZM33.1579 4.77V7.21C33.2312 7.21667 33.3179 7.22333 33.4179 7.23C33.5046 7.23667 33.6046 7.24333 33.7179 7.25C33.8379 7.25 33.9746 7.25 34.1279 7.25C34.4146 7.25 34.6846 7.23333 34.9379 7.2C35.1979 7.16 35.4246 7.09333 35.6179 7C35.8112 6.90667 35.9646 6.77667 36.0779 6.61C36.1979 6.44333 36.2579 6.23333 36.2579 5.98C36.2579 5.75333 36.2146 5.56333 36.1279 5.41C36.0412 5.25 35.9146 5.12333 35.7479 5.03C35.5879 4.93667 35.3946 4.87 35.1679 4.83C34.9412 4.79 34.6879 4.77 34.4079 4.77H33.1579ZM33.1579 3.99H34.1779C34.4179 3.99 34.6446 3.97333 34.8579 3.94C35.0712 3.90667 35.2546 3.84667 35.4079 3.76C35.5679 3.67333 35.6912 3.56 35.7779 3.42C35.8712 3.28 35.9179 3.10333 35.9179 2.89C35.9179 2.69 35.8712 2.52333 35.7779 2.39C35.6846 2.25 35.5546 2.14 35.3879 2.06C35.2279 1.97333 35.0379 1.91 34.8179 1.87C34.5979 1.83 34.3646 1.81 34.1179 1.81C33.8712 1.81 33.6779 1.81333 33.5379 1.82C33.3979 1.82667 33.2712 1.83667 33.1579 1.85V3.99ZM39.4937 8H38.5637V2.8H39.4937V8ZM39.0237 1.86C38.857 1.86 38.7137 1.80667 38.5937 1.7C38.4803 1.58667 38.4237 1.43667 38.4237 1.25C38.4237 1.06333 38.4803 0.916666 38.5937 0.81C38.7137 0.696666 38.857 0.639999 39.0237 0.639999C39.1903 0.639999 39.3303 0.696666 39.4437 0.81C39.5637 0.916666 39.6237 1.06333 39.6237 1.25C39.6237 1.43667 39.5637 1.58667 39.4437 1.7C39.3303 1.80667 39.1903 1.86 39.0237 1.86ZM42.653 8.1C42.0796 8.08667 41.673 7.96333 41.433 7.73C41.193 7.49667 41.073 7.13333 41.073 6.64V0.399999L42.003 0.24V6.49C42.003 6.64333 42.0163 6.77 42.043 6.87C42.0696 6.97 42.113 7.05 42.173 7.11C42.233 7.17 42.313 7.21667 42.413 7.25C42.513 7.27667 42.6363 7.3 42.783 7.32L42.653 8.1ZM45.3873 8.1C44.814 8.08667 44.4073 7.96333 44.1673 7.73C43.9273 7.49667 43.8073 7.13333 43.8073 6.64V0.399999L44.7373 0.24V6.49C44.7373 6.64333 44.7507 6.77 44.7773 6.87C44.804 6.97 44.8473 7.05 44.9073 7.11C44.9673 7.17 45.0473 7.21667 45.1473 7.25C45.2473 7.27667 45.3707 7.3 45.5173 7.32L45.3873 8.1ZM47.4917 8H46.5617V2.8H47.4917V8ZM47.0217 1.86C46.8551 1.86 46.7117 1.80667 46.5917 1.7C46.4784 1.58667 46.4217 1.43667 46.4217 1.25C46.4217 1.06333 46.4784 0.916666 46.5917 0.81C46.7117 0.696666 46.8551 0.639999 47.0217 0.639999C47.1884 0.639999 47.3284 0.696666 47.4417 0.81C47.5617 0.916666 47.6217 1.06333 47.6217 1.25C47.6217 1.43667 47.5617 1.58667 47.4417 1.7C47.3284 1.80667 47.1884 1.86 47.0217 1.86ZM49.091 2.95C49.3043 2.89667 49.5877 2.84 49.941 2.78C50.2943 2.72 50.701 2.69 51.161 2.69C51.5743 2.69 51.9177 2.75 52.191 2.87C52.4643 2.98333 52.681 3.14667 52.841 3.36C53.0077 3.56667 53.1243 3.81667 53.191 4.11C53.2577 4.40333 53.291 4.72667 53.291 5.08V8H52.361V5.28C52.361 4.96 52.3377 4.68667 52.291 4.46C52.251 4.23333 52.181 4.05 52.081 3.91C51.981 3.77 51.8477 3.67 51.681 3.61C51.5143 3.54333 51.3077 3.51 51.061 3.51C50.961 3.51 50.8577 3.51333 50.751 3.52C50.6443 3.52667 50.541 3.53667 50.441 3.55C50.3477 3.55667 50.261 3.56667 50.181 3.58C50.1077 3.59333 50.0543 3.60333 50.021 3.61V8H49.091V2.95ZM58.0932 7.48C58.0132 7.53333 57.8565 7.60333 57.6232 7.69C57.3965 7.77 57.1299 7.81 56.8232 7.81C56.5099 7.81 56.2132 7.76 55.9332 7.66C55.6599 7.56 55.4199 7.40667 55.2132 7.2C55.0065 6.98667 54.8432 6.72333 54.7232 6.41C54.6032 6.09667 54.5432 5.72333 54.5432 5.29C54.5432 4.91 54.5999 4.56333 54.7132 4.25C54.8265 3.93 54.9899 3.65667 55.2032 3.43C55.4232 3.19667 55.6899 3.01667 56.0032 2.89C56.3165 2.75667 56.6699 2.69 57.0632 2.69C57.4965 2.69 57.8732 2.72333 58.1932 2.79C58.5199 2.85 58.7932 2.90667 59.0132 2.96V7.6C59.0132 8.4 58.8065 8.98 58.3932 9.34C57.9799 9.7 57.3532 9.88 56.5132 9.88C56.1865 9.88 55.8765 9.85333 55.5832 9.8C55.2965 9.74667 55.0465 9.68333 54.8332 9.61L55.0032 8.8C55.1899 8.87333 55.4165 8.93667 55.6832 8.99C55.9565 9.05 56.2399 9.08 56.5332 9.08C57.0865 9.08 57.4832 8.97 57.7232 8.75C57.9699 8.53 58.0932 8.18 58.0932 7.7V7.48ZM58.0832 3.62C57.9899 3.59333 57.8632 3.57 57.7032 3.55C57.5499 3.52333 57.3399 3.51 57.0732 3.51C56.5732 3.51 56.1865 3.67333 55.9132 4C55.6465 4.32667 55.5132 4.76 55.5132 5.3C55.5132 5.6 55.5499 5.85667 55.6232 6.07C55.7032 6.28333 55.8065 6.46 55.9332 6.6C56.0665 6.74 56.2165 6.84333 56.3832 6.91C56.5565 6.97667 56.7332 7.01 56.9132 7.01C57.1599 7.01 57.3865 6.97667 57.5932 6.91C57.7999 6.83667 57.9632 6.75333 58.0832 6.66V3.62ZM64.5989 7.31C65.6122 7.31 66.1189 6.96333 66.1189 6.27C66.1189 6.05667 66.0722 5.87667 65.9789 5.73C65.8922 5.57667 65.7722 5.44667 65.6189 5.34C65.4656 5.22667 65.2889 5.13 65.0889 5.05C64.8956 4.97 64.6889 4.89 64.4689 4.81C64.2156 4.72333 63.9756 4.62667 63.7489 4.52C63.5222 4.40667 63.3256 4.27667 63.1589 4.13C62.9922 3.97667 62.8589 3.79667 62.7589 3.59C62.6656 3.38333 62.6189 3.13333 62.6189 2.84C62.6189 2.23333 62.8256 1.76 63.2389 1.42C63.6522 1.08 64.2222 0.909999 64.9489 0.909999C65.3689 0.909999 65.7489 0.956666 66.0889 1.05C66.4356 1.13667 66.6889 1.23333 66.8489 1.34L66.5389 2.13C66.3989 2.04333 66.1889 1.96 65.9089 1.88C65.6356 1.79333 65.3156 1.75 64.9489 1.75C64.7622 1.75 64.5889 1.77 64.4289 1.81C64.2689 1.85 64.1289 1.91 64.0089 1.99C63.8889 2.07 63.7922 2.17333 63.7189 2.3C63.6522 2.42 63.6189 2.56333 63.6189 2.73C63.6189 2.91667 63.6556 3.07333 63.7289 3.2C63.8022 3.32667 63.9056 3.44 64.0389 3.54C64.1722 3.63333 64.3256 3.72 64.4989 3.8C64.6789 3.88 64.8756 3.96 65.0889 4.04C65.3889 4.16 65.6622 4.28 65.9089 4.4C66.1622 4.52 66.3789 4.66333 66.5589 4.83C66.7456 4.99667 66.8889 5.19667 66.9889 5.43C67.0889 5.65667 67.1389 5.93333 67.1389 6.26C67.1389 6.86667 66.9156 7.33333 66.4689 7.66C66.0289 7.98667 65.4056 8.15 64.5989 8.15C64.3256 8.15 64.0722 8.13 63.8389 8.09C63.6122 8.05667 63.4089 8.01667 63.2289 7.97C63.0489 7.91667 62.8922 7.86333 62.7589 7.81C62.6322 7.75 62.5322 7.7 62.4589 7.66L62.7489 6.86C62.9022 6.94667 63.1356 7.04333 63.4489 7.15C63.7622 7.25667 64.1456 7.31 64.5989 7.31ZM67.6412 8.97C67.7145 9.00333 67.8078 9.03333 67.9212 9.06C68.0412 9.09333 68.1578 9.11 68.2712 9.11C68.6378 9.11 68.9245 9.02667 69.1312 8.86C69.3378 8.7 69.5245 8.43667 69.6912 8.07C69.2712 7.27 68.8778 6.42333 68.5112 5.53C68.1512 4.63 67.8512 3.72 67.6112 2.8H68.6112C68.6845 3.1 68.7712 3.42333 68.8712 3.77C68.9778 4.11667 69.0945 4.47333 69.2212 4.84C69.3478 5.20667 69.4845 5.57333 69.6312 5.94C69.7778 6.30667 69.9312 6.66 70.0912 7C70.3445 6.3 70.5645 5.60667 70.7512 4.92C70.9378 4.23333 71.1145 3.52667 71.2812 2.8H72.2412C72.0012 3.78 71.7345 4.72333 71.4412 5.63C71.1478 6.53 70.8312 7.37333 70.4912 8.16C70.3578 8.46 70.2178 8.71667 70.0712 8.93C69.9312 9.15 69.7745 9.33 69.6012 9.47C69.4278 9.61 69.2312 9.71333 69.0112 9.78C68.7978 9.84667 68.5545 9.88 68.2812 9.88C68.2078 9.88 68.1312 9.87333 68.0512 9.86C67.9712 9.85333 67.8912 9.84 67.8112 9.82C67.7378 9.80667 67.6678 9.79 67.6012 9.77C67.5412 9.75 67.4978 9.73333 67.4712 9.72L67.6412 8.97ZM74.4319 7.33C74.8119 7.33 75.0919 7.28 75.2719 7.18C75.4585 7.08 75.5519 6.92 75.5519 6.7C75.5519 6.47333 75.4619 6.29333 75.2819 6.16C75.1019 6.02667 74.8052 5.87667 74.3919 5.71C74.1919 5.63 73.9985 5.55 73.8119 5.47C73.6319 5.38333 73.4752 5.28333 73.3419 5.17C73.2085 5.05667 73.1019 4.92 73.0219 4.76C72.9419 4.6 72.9019 4.40333 72.9019 4.17C72.9019 3.71 73.0719 3.34667 73.4119 3.08C73.7519 2.80667 74.2152 2.67 74.8019 2.67C74.9485 2.67 75.0952 2.68 75.2419 2.7C75.3885 2.71333 75.5252 2.73333 75.6519 2.76C75.7785 2.78 75.8885 2.80333 75.9819 2.83C76.0819 2.85667 76.1585 2.88 76.2119 2.9L76.0419 3.7C75.9419 3.64667 75.7852 3.59333 75.5719 3.54C75.3585 3.48 75.1019 3.45 74.8019 3.45C74.5419 3.45 74.3152 3.50333 74.1219 3.61C73.9285 3.71 73.8319 3.87 73.8319 4.09C73.8319 4.20333 73.8519 4.30333 73.8919 4.39C73.9385 4.47667 74.0052 4.55667 74.0919 4.63C74.1852 4.69667 74.2985 4.76 74.4319 4.82C74.5652 4.88 74.7252 4.94333 74.9119 5.01C75.1585 5.10333 75.3785 5.19667 75.5719 5.29C75.7652 5.37667 75.9285 5.48 76.0619 5.6C76.2019 5.72 76.3085 5.86667 76.3819 6.04C76.4552 6.20667 76.4919 6.41333 76.4919 6.66C76.4919 7.14 76.3119 7.50333 75.9519 7.75C75.5985 7.99667 75.0919 8.12 74.4319 8.12C73.9719 8.12 73.6119 8.08 73.3519 8C73.0919 7.92667 72.9152 7.87 72.8219 7.83L72.9919 7.03C73.0985 7.07 73.2685 7.13 73.5019 7.21C73.7352 7.29 74.0452 7.33 74.4319 7.33ZM78.5548 2.8H80.5248V3.58H78.5548V5.98C78.5548 6.24 78.5748 6.45667 78.6148 6.63C78.6548 6.79667 78.7148 6.93 78.7948 7.03C78.8748 7.12333 78.9748 7.19 79.0948 7.23C79.2148 7.27 79.3548 7.29 79.5148 7.29C79.7948 7.29 80.0181 7.26 80.1848 7.2C80.3581 7.13333 80.4781 7.08667 80.5448 7.06L80.7248 7.83C80.6314 7.87667 80.4681 7.93333 80.2348 8C80.0014 8.07333 79.7348 8.11 79.4348 8.11C79.0814 8.11 78.7881 8.06667 78.5548 7.98C78.3281 7.88667 78.1448 7.75 78.0048 7.57C77.8648 7.39 77.7648 7.17 77.7048 6.91C77.6514 6.64333 77.6248 6.33667 77.6248 5.99V1.35L78.5548 1.19V2.8ZM81.3205 5.41C81.3205 4.95 81.3872 4.55 81.5205 4.21C81.6539 3.86333 81.8305 3.57667 82.0505 3.35C82.2705 3.12333 82.5239 2.95333 82.8105 2.84C83.0972 2.72667 83.3905 2.67 83.6905 2.67C84.3905 2.67 84.9272 2.89 85.3005 3.33C85.6739 3.76333 85.8605 4.42667 85.8605 5.32C85.8605 5.36 85.8605 5.41333 85.8605 5.48C85.8605 5.54 85.8572 5.59667 85.8505 5.65H82.2905C82.3305 6.19 82.4872 6.6 82.7605 6.88C83.0339 7.16 83.4605 7.3 84.0405 7.3C84.3672 7.3 84.6405 7.27333 84.8605 7.22C85.0872 7.16 85.2572 7.10333 85.3705 7.05L85.5005 7.83C85.3872 7.89 85.1872 7.95333 84.9005 8.02C84.6205 8.08667 84.3005 8.12 83.9405 8.12C83.4872 8.12 83.0939 8.05333 82.7605 7.92C82.4339 7.78 82.1639 7.59 81.9505 7.35C81.7372 7.11 81.5772 6.82667 81.4705 6.5C81.3705 6.16667 81.3205 5.80333 81.3205 5.41ZM84.8905 4.9C84.8972 4.48 84.7905 4.13667 84.5705 3.87C84.3572 3.59667 84.0605 3.46 83.6805 3.46C83.4672 3.46 83.2772 3.50333 83.1105 3.59C82.9505 3.67 82.8139 3.77667 82.7005 3.91C82.5872 4.04333 82.4972 4.19667 82.4305 4.37C82.3705 4.54333 82.3305 4.72 82.3105 4.9H84.8905ZM87.1965 2.95C87.4098 2.89667 87.6898 2.84 88.0365 2.78C88.3898 2.72 88.7965 2.69 89.2565 2.69C89.5898 2.69 89.8698 2.73667 90.0965 2.83C90.3232 2.91667 90.5132 3.04667 90.6665 3.22C90.7132 3.18667 90.7865 3.14 90.8865 3.08C90.9865 3.02 91.1098 2.96333 91.2565 2.91C91.4032 2.85 91.5665 2.8 91.7465 2.76C91.9265 2.71333 92.1198 2.69 92.3265 2.69C92.7265 2.69 93.0532 2.75 93.3065 2.87C93.5598 2.98333 93.7565 3.14667 93.8965 3.36C94.0432 3.57333 94.1398 3.82667 94.1865 4.12C94.2398 4.41333 94.2665 4.73333 94.2665 5.08V8H93.3365V5.28C93.3365 4.97333 93.3198 4.71 93.2865 4.49C93.2598 4.27 93.2032 4.08667 93.1165 3.94C93.0365 3.79333 92.9232 3.68667 92.7765 3.62C92.6365 3.54667 92.4532 3.51 92.2265 3.51C91.9132 3.51 91.6532 3.55333 91.4465 3.64C91.2465 3.72 91.1098 3.79333 91.0365 3.86C91.0898 4.03333 91.1298 4.22333 91.1565 4.43C91.1832 4.63667 91.1965 4.85333 91.1965 5.08V8H90.2665V5.28C90.2665 4.97333 90.2498 4.71 90.2165 4.49C90.1832 4.27 90.1232 4.08667 90.0365 3.94C89.9565 3.79333 89.8432 3.68667 89.6965 3.62C89.5565 3.54667 89.3765 3.51 89.1565 3.51C89.0632 3.51 88.9632 3.51333 88.8565 3.52C88.7498 3.52667 88.6465 3.53667 88.5465 3.55C88.4532 3.55667 88.3665 3.56667 88.2865 3.58C88.2065 3.59333 88.1532 3.60333 88.1265 3.61V8H87.1965V2.95Z" fill="#19417D"/>
</svg>
